<?xml version="1.0" encoding="UTF-8"?>
<svg width="80px" height="80px" viewBox="0 0 80 80" version="1.1" xmlns="http://www.w3.org/2000/svg" xmlns:xlink="http://www.w3.org/1999/xlink">
    <!-- Generator: Sketch 54.1 (76490) - https://sketchapp.com -->
    <title>Icon_service_7</title>
    <desc>Created with Sketch.</desc>
    <defs>
        <path d="M30,13.3333333 L28.3333333,13.3333333 L28.3333333,10 C28.3333333,5.4 24.6,1.66666667 20,1.66666667 C15.4,1.66666667 11.6666667,5.4 11.6666667,10 L11.6666667,13.3333333 L10,13.3333333 C8.16666667,13.3333333 6.66666667,14.8333333 6.66666667,16.6666667 L6.66666667,33.3333333 C6.66666667,35.1666667 8.16666667,36.6666667 10,36.6666667 L30,36.6666667 C31.8333333,36.6666667 33.3333333,35.1666667 33.3333333,33.3333333 L33.3333333,16.6666667 C33.3333333,14.8333333 31.8333333,13.3333333 30,13.3333333 Z M20,28.3333333 C18.1666667,28.3333333 16.6666667,26.8333333 16.6666667,25 C16.6666667,23.1666667 18.1666667,21.6666667 20,21.6666667 C21.8333333,21.6666667 23.3333333,23.1666667 23.3333333,25 C23.3333333,26.8333333 21.8333333,28.3333333 20,28.3333333 Z M15,13.3333333 L15,10 C15,7.23333333 17.2333333,5 20,5 C22.7666667,5 25,7.23333333 25,10 L25,13.3333333 L15,13.3333333 Z" id="path-1"></path>
    </defs>
    <g id="Website" stroke="none" stroke-width="1" fill="none" fill-rule="evenodd">
        <g id="Icon_service_7">
            <rect id="Rectangle" fill="#6F6AFF" x="0" y="0" width="80" height="80"></rect>
            <g id="icon/action/lock_24px" transform="translate(20.000000, 20.000000)">
                <mask id="mask-2" fill="white">
                    <use xlink:href="#path-1"></use>
                </mask>
                <g fill-rule="nonzero"></g>
                <g id="✱-/-Color-/-Icons-/-Black-/-Inactive" mask="url(#mask-2)" fill="#FFFFFF" fill-rule="evenodd">
                    <rect id="Rectangle" x="0" y="0" width="40" height="40"></rect>
                </g>
            </g>
        </g>
    </g>
</svg>