<?xml version="1.0" encoding="UTF-8"?>
<svg width="80px" height="80px" viewBox="0 0 80 80" version="1.1" xmlns="http://www.w3.org/2000/svg" xmlns:xlink="http://www.w3.org/1999/xlink">
    <!-- Generator: Sketch 54.1 (76490) - https://sketchapp.com -->
    <title>Icon_service_5</title>
    <desc>Created with Sketch.</desc>
    <defs>
        <path d="M20,7.5 C11.6666667,7.5 4.55,12.6833333 1.66666667,20 C4.55,27.3166667 11.6666667,32.5 20,32.5 C28.3333333,32.5 35.45,27.3166667 38.3333333,20 C35.45,12.6833333 28.3333333,7.5 20,7.5 Z M20,28.3333333 C15.4,28.3333333 11.6666667,24.6 11.6666667,20 C11.6666667,15.4 15.4,11.6666667 20,11.6666667 C24.6,11.6666667 28.3333333,15.4 28.3333333,20 C28.3333333,24.6 24.6,28.3333333 20,28.3333333 Z M20,15 C17.2333333,15 15,17.2333333 15,20 C15,22.7666667 17.2333333,25 20,25 C22.7666667,25 25,22.7666667 25,20 C25,17.2333333 22.7666667,15 20,15 Z" id="path-1"></path>
    </defs>
    <g id="Website" stroke="none" stroke-width="1" fill="none" fill-rule="evenodd">
        <g id="Icon_service_5">
            <rect id="Rectangle" fill="#6F6AFF" x="0" y="0" width="80" height="80"></rect>
            <g id="icon/image/remove_red_eye_24px" transform="translate(20.000000, 20.000000)">
                <mask id="mask-2" fill="white">
                    <use xlink:href="#path-1"></use>
                </mask>
                <g fill-rule="nonzero"></g>
                <g id="✱-/-Color-/-Icons-/-Black-/-Inactive" mask="url(#mask-2)" fill="#FFFFFF" fill-rule="evenodd">
                    <rect id="Rectangle" x="0" y="0" width="40" height="40"></rect>
                </g>
            </g>
        </g>
    </g>
</svg>