<?xml version="1.0" encoding="UTF-8"?>
<svg width="80px" height="80px" viewBox="0 0 80 80" version="1.1" xmlns="http://www.w3.org/2000/svg" xmlns:xlink="http://www.w3.org/1999/xlink">
    <!-- Generator: Sketch 54.1 (76490) - https://sketchapp.com -->
    <title>Icon_service_2 </title>
    <desc>Created with Sketch.</desc>
    <defs>
        <path d="M25,18.3333333 L25,8.33333333 L20,3.33333333 L15,8.33333333 L15,11.6666667 L5,11.6666667 L5,35 L35,35 L35,18.3333333 L25,18.3333333 Z M11.6666667,31.6666667 L8.33333333,31.6666667 L8.33333333,28.3333333 L11.6666667,28.3333333 L11.6666667,31.6666667 Z M11.6666667,25 L8.33333333,25 L8.33333333,21.6666667 L11.6666667,21.6666667 L11.6666667,25 Z M11.6666667,18.3333333 L8.33333333,18.3333333 L8.33333333,15 L11.6666667,15 L11.6666667,18.3333333 Z M21.6666667,31.6666667 L18.3333333,31.6666667 L18.3333333,28.3333333 L21.6666667,28.3333333 L21.6666667,31.6666667 Z M21.6666667,25 L18.3333333,25 L18.3333333,21.6666667 L21.6666667,21.6666667 L21.6666667,25 Z M21.6666667,18.3333333 L18.3333333,18.3333333 L18.3333333,15 L21.6666667,15 L21.6666667,18.3333333 Z M21.6666667,11.6666667 L18.3333333,11.6666667 L18.3333333,8.33333333 L21.6666667,8.33333333 L21.6666667,11.6666667 Z M31.6666667,31.6666667 L28.3333333,31.6666667 L28.3333333,28.3333333 L31.6666667,28.3333333 L31.6666667,31.6666667 Z M31.6666667,25 L28.3333333,25 L28.3333333,21.6666667 L31.6666667,21.6666667 L31.6666667,25 Z" id="path-1"></path>
    </defs>
    <g id="Website" stroke="none" stroke-width="1" fill="none" fill-rule="evenodd">
        <g id="Icon_service_2-">
            <rect id="Rectangle" fill="#6F6AFF" x="0" y="0" width="80" height="80"></rect>
            <g id="icon/social/location_city_24px" transform="translate(20.000000, 20.000000)">
                <mask id="mask-2" fill="white">
                    <use xlink:href="#path-1"></use>
                </mask>
                <g fill-rule="nonzero"></g>
                <g id="✱-/-Color-/-Icons-/-Black-/-Inactive" mask="url(#mask-2)" fill="#FFFFFF" fill-rule="evenodd">
                    <rect id="Rectangle" x="0" y="0" width="40" height="40"></rect>
                </g>
            </g>
        </g>
    </g>
</svg>