<?xml version="1.0" encoding="UTF-8"?>
<svg width="58px" height="70px" viewBox="0 0 58 70" version="1.1" xmlns="http://www.w3.org/2000/svg" xmlns:xlink="http://www.w3.org/1999/xlink">
    <!-- Generator: sketchtool 53.2 (72643) - https://sketchapp.com -->
    <title>02161081-B669-4D6B-8D60-D959D7DBD53E</title>
    <desc>Created with sketchtool.</desc>
    <g id="Website" stroke="none" stroke-width="1" fill="none" fill-rule="evenodd">
        <g id="Main.-Desktop" transform="translate(-11.000000, -24.000000)">
            <g id="Menu">
                <g id="Logo_A-Security-02" transform="translate(11.000000, 24.000000)">
                    <path d="M51.8343,47.0764 C47.6014,55.9391 40.628,62.5492 29.6289,68.8688 L28.7259,69.3875 L27.825,68.8765 C16.9085,62.6794 9.7944,55.9629 5.4705,47.0162 C1.1844,38.1493 -0.2849,27.1985 0.0553,12.4614 L0.084,11.2161 L1.246,10.7856 L28.0959,0.8456 L28.7231,0.6132 L29.3503,0.8456 L56.2002,10.7856 L57.3853,11.2245 L57.3902,12.4901 C57.4504,27.426 56.0245,38.304 51.8343,47.0764" id="Combined-Shape" fill="#000000" fill-rule="nonzero"></path>
                    <path d="M28.7203,65.1924 C38.521,59.4244 44.765,53.4135 48.5401,45.5084 C52.3579,37.5165 53.7306,27.489 53.7558,13.7676 L28.7224,4.4996 L3.6666,13.776 C3.4475,27.3049 4.8538,37.3751 8.7493,45.4328 C12.607,53.4128 18.9784,59.5196 28.7203,65.1924" id="Path" fill="#FFFFFF" fill-rule="nonzero"></path>
                    <path d="M27.1502,27.1509 L29.1214,17.7996 L31.0905,27.1509 L27.1502,27.1509 Z M32.8097,35.3332 L37.1021,35.3332 L31.3348,11.8601 L26.908,11.8601 L21.14,35.3332 L25.4324,35.3332 L26.3473,31.0744 L31.9144,31.0744 L32.8097,35.3332 Z" id="Shape" fill="#000000" fill-rule="nonzero"></path>
                    <path d="M38.3838,55.0697 L19.0092,55.0697 C21.7196,57.6114 24.9354,59.9774 28.7175,62.2685 C32.5073,59.9515 35.7035,57.5904 38.3838,55.0697" id="Path" fill="#D62B26"></path>
                    <path d="M14.4872,50.0493 L42.8813,50.0493 C41.4519,51.9757 39.7957,53.7894 37.8868,55.5296 L19.5069,55.5296 C17.5987,53.7943 15.932,51.9785 14.4872,50.0493" id="Path" fill="#0075BD"></path>
                    <path d="M42.6272,45.15 L43.8473,45.15 L43.8473,43.3622 L45.2648,39.1349 L44.002,39.1349 L43.5295,40.7764 C43.5127,40.8338 43.491,40.9024 43.4679,40.9843 C43.4434,41.0662 43.4182,41.1516 43.3923,41.2447 C43.3664,41.3364 43.3405,41.4281 43.3174,41.5184 C43.2929,41.6087 43.2719,41.6899 43.2544,41.7648 L43.2201,41.7648 C43.204,41.6899 43.1858,41.6087 43.1627,41.5184 C43.1396,41.4295 43.1165,41.3392 43.0913,41.2475 C43.0668,41.1572 43.0423,41.0732 43.0199,40.9941 C42.9968,40.9164 42.9786,40.852 42.9625,40.8023 L42.4725,39.1349 L41.209,39.1349 L42.6265,43.3622 L42.6265,45.15 L42.6272,45.15 Z M41.0802,39.1349 L37.471,39.1349 L37.471,40.2955 L38.6484,40.2955 L38.6484,45.15 L39.9028,45.15 L39.9028,40.2955 L41.0802,40.2955 L41.0802,39.1349 Z M35.5894,39.1349 L35.5894,45.15 L36.8095,45.15 L36.8095,39.1349 L35.5894,39.1349 Z M32.2896,40.2955 L32.7964,40.2955 C33.0127,40.2955 33.1758,40.3669 33.2892,40.5104 C33.4012,40.6525 33.4579,40.8611 33.4579,41.1376 C33.4579,41.4099 33.4005,41.6157 33.2892,41.7578 C33.1758,41.8992 33.0127,41.9699 32.7964,41.9713 L32.2896,41.9713 L32.2896,40.2955 Z M33.6819,45.15 L35.014,45.15 L33.88,42.8729 C34.1481,42.7126 34.3539,42.4851 34.4974,42.1911 C34.6409,41.8978 34.7123,41.5471 34.7137,41.1369 C34.7123,40.7141 34.6367,40.3536 34.4876,40.0554 C34.3371,39.7579 34.1208,39.5297 33.8387,39.3722 C33.5552,39.2147 33.2143,39.1356 32.8146,39.1342 L31.0702,39.1342 L31.0702,45.15 L32.2903,45.15 L32.2903,43.1305 L32.7201,43.1305 L33.6819,45.15 Z M28.1911,45.2536 C28.5936,45.2522 28.9373,45.1703 29.2222,45.0086 C29.5071,44.8469 29.7262,44.6131 29.8781,44.31 C30.03,44.0076 30.1056,43.6429 30.107,43.2173 L30.107,39.1356 L28.8351,39.1356 L28.8351,43.2173 C28.8351,43.4938 28.7819,43.7045 28.6748,43.8487 C28.5677,43.9936 28.4053,44.0664 28.1904,44.0678 C27.9755,44.0664 27.8152,43.9929 27.7067,43.8487 C27.5996,43.7038 27.5464,43.4938 27.5464,43.2173 L27.5464,39.1356 L26.2745,39.1356 L26.2745,43.2173 C26.2759,43.6429 26.3522,44.0076 26.5034,44.31 C26.6553,44.6138 26.8744,44.8469 27.1593,45.0086 C27.4449,45.1703 27.7886,45.2515 28.1911,45.2536 Z M23.7314,45.2536 C24.1395,45.2536 24.486,45.1787 24.7709,45.0303 C25.0572,44.8826 25.2763,44.6649 25.4296,44.3772 C25.5829,44.0881 25.6634,43.7325 25.6732,43.3118 L24.4531,43.3118 C24.4377,43.5764 24.3712,43.7689 24.2571,43.8907 C24.1409,44.0111 23.9666,44.0699 23.7314,44.0685 C23.5424,44.0699 23.3975,44.0083 23.2974,43.8837 C23.1973,43.7605 23.1469,43.5701 23.1469,43.3125 L23.1469,40.9752 C23.1483,40.7099 23.2001,40.5139 23.3002,40.3879 C23.4017,40.2633 23.5452,40.2003 23.7314,40.2017 C23.9617,40.1989 24.1325,40.2591 24.2452,40.3823 C24.3572,40.5041 24.4195,40.7015 24.4356,40.9752 L25.6557,40.9752 C25.6326,40.3368 25.4583,39.851 25.1328,39.5185 C24.8073,39.1846 24.3425,39.0173 23.7391,39.0159 C23.345,39.0159 23.0097,39.0922 22.7325,39.2406 C22.4546,39.3911 22.2425,39.6102 22.0962,39.9021 C21.9506,40.1926 21.8757,40.5496 21.8743,40.9745 L21.8743,43.3118 C21.8757,43.7332 21.9499,44.0881 22.0962,44.3772 C22.2425,44.6649 22.4532,44.8826 22.7297,45.0303 C23.0069,45.1787 23.3401,45.2536 23.7314,45.2536 Z M19.2458,43.9901 L19.2458,42.658 L20.9559,42.658 L20.9559,41.5408 L19.2458,41.5408 L19.2458,40.2948 L21.1274,40.2948 L21.1274,39.1342 L18.0257,39.1342 L18.0257,45.15 L21.2135,45.15 L21.2135,43.9901 L19.2458,43.9901 Z M15.4049,45.2704 C15.7045,45.269 15.9705,45.2263 16.2036,45.1416 C16.4374,45.0583 16.6362,44.9393 16.7979,44.7867 C16.9596,44.6334 17.0828,44.4528 17.1675,44.2456 C17.2522,44.0377 17.2949,43.8088 17.2949,43.561 C17.2921,43.2887 17.2494,43.05 17.1633,42.8449 C17.0772,42.6398 16.9631,42.4627 16.821,42.3094 C16.6796,42.1561 16.5249,42.0217 16.3541,41.9041 C16.1854,41.7865 16.016,41.6808 15.8459,41.5835 C15.6772,41.4862 15.5225,41.3903 15.3804,41.2972 C15.239,41.2041 15.1242,41.104 15.0381,40.9983 C14.9527,40.894 14.9093,40.7736 14.9065,40.6406 C14.9079,40.502 14.9527,40.3928 15.0409,40.3137 C15.1284,40.2353 15.253,40.1947 15.4133,40.1933 C15.5897,40.1933 15.7227,40.2416 15.8116,40.341 C15.9019,40.4397 15.946,40.5888 15.946,40.7862 L17.2004,40.7862 C17.199,40.4152 17.1276,40.0974 16.9855,39.8335 C16.8434,39.5703 16.6404,39.368 16.3751,39.228 C16.1098,39.088 15.792,39.0173 15.421,39.0159 C15.1431,39.0173 14.8967,39.0558 14.679,39.1349 C14.4627,39.2133 14.2793,39.3239 14.1288,39.4653 C13.9783,39.6088 13.8642,39.7761 13.7851,39.9693 C13.7081,40.1625 13.6675,40.3746 13.6675,40.6049 C13.6703,40.8653 13.713,41.0949 13.7977,41.2923 C13.8824,41.4897 13.9951,41.6647 14.1344,41.8152 C14.2737,41.9657 14.4277,42.1001 14.5943,42.2191 C14.7623,42.3381 14.9282,42.448 15.0955,42.5502 C15.2635,42.6517 15.4161,42.7525 15.5554,42.8526 C15.6954,42.9527 15.8074,43.0591 15.8921,43.1718 C15.9768,43.2852 16.0209,43.4112 16.0223,43.5526 C16.0223,43.6541 16.0006,43.7444 15.9565,43.8249 C15.9117,43.9054 15.8466,43.9677 15.7563,44.0139 C15.6674,44.0615 15.5554,44.0839 15.421,44.0853 C15.2264,44.0867 15.0731,44.0321 14.9625,43.9222 C14.8519,43.8123 14.7952,43.6373 14.7938,43.3979 L13.5394,43.3979 C13.5408,43.8018 13.6178,44.1441 13.7683,44.422 C13.9202,44.6999 14.1344,44.912 14.413,45.0555 C14.6916,45.1976 15.0227,45.269 15.4049,45.2704 Z" id="Shape" fill="#000000" fill-rule="nonzero"></path>
                </g>
            </g>
        </g>
    </g>
</svg>